<mxfile host="app.diagrams.net" agent="Mozilla/5.0 (Macintosh; Intel Mac OS X 10_15_7) AppleWebKit/537.36 (KHTML, like Gecko) Chrome/126.0.0.0 Safari/537.36" version="24.7.5">
  <diagram id="FJUKhYs2KTnzE7u26_8U" name="Страница — 1">
    <mxGraphModel dx="954" dy="639" grid="1" gridSize="10" guides="1" tooltips="1" connect="1" arrows="1" fold="1" page="1" pageScale="1" pageWidth="827" pageHeight="1169" math="0" shadow="0">
      <root>
        <mxCell id="0" />
        <mxCell id="1" parent="0" />
        <mxCell id="ix-1FzdNAOIA9Tlrd17a-2" value="" style="swimlane;startSize=0;" vertex="1" parent="1">
          <mxGeometry x="100" y="80" width="360" height="250" as="geometry" />
        </mxCell>
        <mxCell id="ix-1FzdNAOIA9Tlrd17a-3" value="Консилиум" style="text;html=1;align=center;verticalAlign=middle;resizable=0;points=[];autosize=1;strokeColor=none;fillColor=none;" vertex="1" parent="ix-1FzdNAOIA9Tlrd17a-2">
          <mxGeometry x="135" y="8" width="90" height="30" as="geometry" />
        </mxCell>
        <mxCell id="ix-1FzdNAOIA9Tlrd17a-4" value="Комиссия" style="rounded=0;whiteSpace=wrap;html=1;" vertex="1" parent="ix-1FzdNAOIA9Tlrd17a-2">
          <mxGeometry x="120" y="95" width="120" height="60" as="geometry" />
        </mxCell>
        <mxCell id="ix-1FzdNAOIA9Tlrd17a-5" value="" style="swimlane;startSize=0;" vertex="1" parent="1">
          <mxGeometry x="500" y="80" width="360" height="250" as="geometry" />
        </mxCell>
        <mxCell id="ix-1FzdNAOIA9Tlrd17a-6" value="ТБ-центр" style="text;html=1;align=center;verticalAlign=middle;resizable=0;points=[];autosize=1;strokeColor=none;fillColor=none;" vertex="1" parent="ix-1FzdNAOIA9Tlrd17a-5">
          <mxGeometry x="140" y="8" width="80" height="30" as="geometry" />
        </mxCell>
        <mxCell id="ix-1FzdNAOIA9Tlrd17a-7" value="Врач-фтизиатр" style="rounded=0;whiteSpace=wrap;html=1;" vertex="1" parent="ix-1FzdNAOIA9Tlrd17a-5">
          <mxGeometry x="140" y="60" width="120" height="60" as="geometry" />
        </mxCell>
        <mxCell id="ix-1FzdNAOIA9Tlrd17a-8" value="Лаборант" style="rounded=0;whiteSpace=wrap;html=1;" vertex="1" parent="ix-1FzdNAOIA9Tlrd17a-5">
          <mxGeometry x="207" y="160" width="120" height="60" as="geometry" />
        </mxCell>
        <mxCell id="ix-1FzdNAOIA9Tlrd17a-9" value="Обслуживающий персонал" style="rounded=0;whiteSpace=wrap;html=1;" vertex="1" parent="ix-1FzdNAOIA9Tlrd17a-5">
          <mxGeometry x="60" y="160" width="120" height="60" as="geometry" />
        </mxCell>
        <mxCell id="ix-1FzdNAOIA9Tlrd17a-10" value="" style="endArrow=classic;html=1;rounded=0;exitX=0.5;exitY=1;exitDx=0;exitDy=0;entryX=0.5;entryY=0;entryDx=0;entryDy=0;" edge="1" parent="ix-1FzdNAOIA9Tlrd17a-5" source="ix-1FzdNAOIA9Tlrd17a-7" target="ix-1FzdNAOIA9Tlrd17a-9">
          <mxGeometry width="50" height="50" relative="1" as="geometry">
            <mxPoint x="-110" y="280" as="sourcePoint" />
            <mxPoint x="-60" y="230" as="targetPoint" />
          </mxGeometry>
        </mxCell>
        <mxCell id="ix-1FzdNAOIA9Tlrd17a-12" value="" style="endArrow=classic;html=1;rounded=0;exitX=0.5;exitY=1;exitDx=0;exitDy=0;entryX=0.5;entryY=0;entryDx=0;entryDy=0;" edge="1" parent="ix-1FzdNAOIA9Tlrd17a-5" source="ix-1FzdNAOIA9Tlrd17a-7" target="ix-1FzdNAOIA9Tlrd17a-8">
          <mxGeometry width="50" height="50" relative="1" as="geometry">
            <mxPoint x="-110" y="280" as="sourcePoint" />
            <mxPoint x="-60" y="230" as="targetPoint" />
          </mxGeometry>
        </mxCell>
      </root>
    </mxGraphModel>
  </diagram>
</mxfile>
